<svg xmlns="http://www.w3.org/2000/svg" width="512" height="1024" viewBox="0 0 512 1024">
  <rect width="512" height="1024" fill="#303030"/>
  <g opacity="0.18">
    <rect x="0" y="0" width="512" height="16" fill="#000"/>
    <rect x="0" y="64" width="512" height="16" fill="#000"/>
    <rect x="0" y="128" width="512" height="16" fill="#000"/>
    <rect x="0" y="192" width="512" height="16" fill="#000"/>
    <rect x="0" y="256" width="512" height="16" fill="#000"/>
    <rect x="0" y="320" width="512" height="16" fill="#000"/>
    <rect x="0" y="384" width="512" height="16" fill="#000"/>
    <rect x="0" y="448" width="512" height="16" fill="#000"/>
    <rect x="0" y="512" width="512" height="16" fill="#000"/>
    <rect x="0" y="576" width="512" height="16" fill="#000"/>
    <rect x="0" y="640" width="512" height="16" fill="#000"/>
    <rect x="0" y="704" width="512" height="16" fill="#000"/>
    <rect x="0" y="768" width="512" height="16" fill="#000"/>
    <rect x="0" y="832" width="512" height="16" fill="#000"/>
    <rect x="0" y="896" width="512" height="16" fill="#000"/>
    <rect x="0" y="960" width="512" height="16" fill="#000"/>
  </g>
</svg>
